# xmcd
#
# Track frame offsets:
#	150
#	14359
#	32804
#	48994
#	64012
#	81370
#	98610
#	114804
#	131115
#	148087
#
# Disc length: 2200 seconds
#
# Revision: 0
# Processed by: cddbd v1.5.2PL0 Copyright (c) Steve Scherf et al.
# Submitted via: EasyCDDAExtractor 15.3.0.1
#
DISCID=8108960a
DTITLE=Yolandita Monge - Mas Para Dar
DYEAR=2012
DGENRE=Latin
TTITLE0=Ahora Vivo Sin Tu Amor
TTITLE1=Vivo Por Ti
TTITLE2=Desde Que Te Perdi
TTITLE3=Y Aqui Me Ves De Pie
TTITLE4=Veras Dolor
TTITLE5=Mas Para Dar
TTITLE6=Vivo Por Ti (Version Acustica)
TTITLE7=Hoy No Sera Un Dia Mas
TTITLE8=No Mas Pena
TTITLE9=Eres Tu
EXTD=
EXTT0=
EXTT1=
EXTT2=
EXTT3=
EXTT4=
EXTT5=
EXTT6=
EXTT7=
EXTT8=
EXTT9=
PLAYORDER=
